<svg width="66" height="66" viewBox="0 0 66 66" fill="none" xmlns="http://www.w3.org/2000/svg">
<path d="M33 0.1875C26.5103 0.1875 20.1664 2.11192 14.7704 5.7174C9.37438 9.32289 5.16872 14.4475 2.68522 20.4432C0.201717 26.4389 -0.44808 33.0364 0.817998 39.4014C2.08408 45.7664 5.20916 51.613 9.79807 56.2019C14.387 60.7909 20.2336 63.9159 26.5986 65.182C32.9636 66.4481 39.5611 65.7983 45.5568 63.3148C51.5525 60.8313 56.6771 56.6256 60.2826 51.2296C63.8881 45.8337 65.8125 39.4897 65.8125 33C65.8125 24.2976 62.3555 15.9516 56.202 9.79806C50.0484 3.64452 41.7024 0.1875 33 0.1875ZM34.4066 20.3431C37.3893 20.3466 40.2488 21.533 42.3579 23.6421C44.467 25.7512 45.6534 28.6107 45.6569 31.5934H42.8438C42.8414 29.3565 41.9518 27.2118 40.37 25.63C38.7882 24.0482 36.6435 23.1586 34.4066 23.1562V20.3431ZM43.5175 52.6875C43.4322 52.6875 34.9863 52.5431 24.1253 41.8747C13.4569 31.0181 13.3125 22.5678 13.3125 22.4825C13.3125 21.4303 19.875 13.3125 21.3253 13.3125C21.8285 13.3125 22.22 13.6537 22.6488 14.1656C23.6813 15.395 28.2466 22.6006 28.0366 23.8016C27.936 24.3659 27.4569 24.7947 26.0831 25.9475C25.4062 26.4796 24.7728 27.0648 24.1888 27.6975C24.4685 28.8551 24.884 29.9756 25.4269 31.0356C27.4493 35.1939 30.8095 38.5526 34.9688 40.5731C36.0288 41.116 37.1493 41.5316 38.3069 41.8112C38.9396 41.2272 39.5248 40.5938 40.0569 39.9169C41.2097 38.5431 41.6385 38.0641 42.2028 37.9634C43.4038 37.7447 50.6094 42.3188 51.8388 43.3512C52.3506 43.7887 52.6919 44.1716 52.6919 44.6747C52.6875 46.125 44.5697 52.6875 43.5175 52.6875ZM49.8744 31.5934C49.8698 27.4925 48.2386 23.5609 45.3389 20.6612C42.4391 17.7614 38.5075 16.1303 34.4066 16.1256V13.3125C39.2532 13.3183 43.8997 15.2462 47.3268 18.6733C50.7538 22.1003 52.6817 26.7468 52.6875 31.5934H49.8744Z" fill="url(#paint0_linear_678_2156)"/>
<defs>
<linearGradient id="paint0_linear_678_2156" x1="4.11189" y1="63.3341" x2="54.4572" y2="10.4709" gradientUnits="userSpaceOnUse">
<stop stop-color="#00A1E2"/>
<stop offset="1" stop-color="#00E0A5"/>
</linearGradient>
</defs>
</svg>
